<svg xmlns="http://www.w3.org/2000/svg" viewBox="0 0 75.4 40.86"><defs><style>.cls-1{fill:#edaa6c;}</style></defs><g id="Layer_2" data-name="Layer 2"><g id="Layer_1-2" data-name="Layer 1"><path id="Truck-3" class="cls-1" d="M71.8,13.55,50,1A7.26,7.26,0,0,0,46.41.08L7.18,0A7.17,7.17,0,0,0,0,7.17V33.69a7.17,7.17,0,0,0,7.17,7.17H68.23a7.17,7.17,0,0,0,7.17-7.17V19.77A7.19,7.19,0,0,0,71.8,13.55ZM39.42,36.37a.72.72,0,0,1-1.44,0V4.48a.72.72,0,1,1,1.44,0ZM68,21.9a5,5,0,0,1-5,5H48.86a5,5,0,0,1-5-5V12.6a5,5,0,0,1,7.6-4.3l14.14,8.48A5,5,0,0,1,68,21.08Z"/></g></g></svg>