<svg xmlns="http://www.w3.org/2000/svg" viewBox="0 0 72.48 40.88"><defs><style>.cls-1{fill:#87afec;}</style></defs><g id="Layer_2" data-name="Layer 2"><g id="Layer_1-2" data-name="Layer 1"><path id="Truck-4" class="cls-1" d="M66.84,0H5.64C2.52,0,0,3.21,0,7.17V33.71c0,4,2.52,7.17,5.64,7.17h61.2c3.11,0,5.64-3.21,5.64-7.17V7.17C72.48,3.21,70,0,66.84,0ZM49,36.72a.72.72,0,1,1-1.43,0V4.62a.72.72,0,1,1,1.43,0ZM66.79,20.81a1.93,1.93,0,0,1-1.64,2.12H55.7a1.93,1.93,0,0,1-1.64-2.12V8.18A1.94,1.94,0,0,1,55.7,6.05h9.45a1.94,1.94,0,0,1,1.64,2.13Z"/></g></g></svg>