<svg xmlns="http://www.w3.org/2000/svg" viewBox="0 0 77.17 40.65"><defs><style>.cls-1{fill:#afbd85;}</style></defs><g id="Layer_2" data-name="Layer 2"><g id="Layer_1-2" data-name="Layer 1"><path id="Truck-1" class="cls-1" d="M75.07,18,59.19,2.1A7.2,7.2,0,0,0,54.12,0H43.77A7.17,7.17,0,0,0,36.6,7.17v3a7.17,7.17,0,0,1-7.17,7.17H7.17A7.17,7.17,0,0,0,0,24.55v8.94a7.17,7.17,0,0,0,7.17,7.16H70a7.17,7.17,0,0,0,7.17-7.16V23.05A7.2,7.2,0,0,0,75.07,18ZM36.3,35.89a.72.72,0,1,1-1.43,0V20.33a.72.72,0,1,1,1.43,0ZM58.63,19.3H46.16a4,4,0,0,1-3.95-4V10.56a4,4,0,0,1,3.95-3.95h7.68a4,4,0,0,1,2.79,1.15l4.79,4.8A4,4,0,0,1,58.63,19.3Z"/></g></g></svg>