<svg xmlns="http://www.w3.org/2000/svg" viewBox="0 0 80.2 41.07"><defs><style>.cls-1{fill:#cca8ef;}</style></defs><g id="Layer_2" data-name="Layer 2"><g id="Layer_1-2" data-name="Layer 1"><path id="Truck-2" class="cls-1" d="M78.09,28.83,51.36,2.1A7.2,7.2,0,0,0,46.29,0H7.17A7.17,7.17,0,0,0,0,7.17V33.62a7.18,7.18,0,0,0,7.14,7.17L73,41.07A7.17,7.17,0,0,0,78.09,28.83Zm-40,7.55a.72.72,0,1,1-1.43,0V4.49a.72.72,0,0,1,1.43,0Zm24.67-1.92H48.68a4.93,4.93,0,0,1-4.93-4.93V16.39a4.93,4.93,0,0,1,8.3-3.6L66.13,25.92A4.93,4.93,0,0,1,62.77,34.46Z"/></g></g></svg>