<svg xmlns="http://www.w3.org/2000/svg" viewBox="0 0 12.22 12.22"><defs><style>.cls-1{fill:#ccc;}</style></defs><g id="Layer_2" data-name="Layer 2"><g id="Layer_1-2" data-name="Layer 1"><path class="cls-1" d="M3.75,11.74A6.22,6.22,0,0,1,.48,8.47,5.86,5.86,0,0,1,0,6.11,5.82,5.82,0,0,1,.48,3.75,6.22,6.22,0,0,1,1.8,1.8,6.3,6.3,0,0,1,3.74.48,5.91,5.91,0,0,1,6.11,0,5.89,5.89,0,0,1,8.47.48a6.22,6.22,0,0,1,3.27,3.27,5.82,5.82,0,0,1,.48,2.36,5.86,5.86,0,0,1-.48,2.36,6.22,6.22,0,0,1-3.27,3.27,5.86,5.86,0,0,1-2.36.48A5.89,5.89,0,0,1,3.75,11.74ZM8,10.51a4.81,4.81,0,0,0,1.52-1,4.74,4.74,0,0,0,1-1.51,4.64,4.64,0,0,0,.37-1.86,4.64,4.64,0,0,0-.37-1.86,4.81,4.81,0,0,0-1-1.52A4.58,4.58,0,0,0,8,1.71a4.64,4.64,0,0,0-1.86-.37A4.75,4.75,0,0,0,2.73,2.73a5,5,0,0,0-1,1.52,4.82,4.82,0,0,0-.36,1.86A4.82,4.82,0,0,0,1.71,8a4.77,4.77,0,0,0,1,1.51,4.71,4.71,0,0,0,3.37,1.4A4.82,4.82,0,0,0,8,10.51ZM6,8.6a.73.73,0,0,1-.17-.51V4.71h0l-.66.43a.89.89,0,0,1-.19.1l-.15,0a.39.39,0,0,1-.31-.13.45.45,0,0,1-.12-.32.5.5,0,0,1,.26-.44l1-.66a1.49,1.49,0,0,1,.79-.28.69.69,0,0,1,.51.19.64.64,0,0,1,.19.49v4a.73.73,0,0,1-.17.51.65.65,0,0,1-.46.17A.62.62,0,0,1,6,8.6Z"/></g></g></svg>