<svg xmlns="http://www.w3.org/2000/svg" viewBox="0 0 12.22 12.22"><defs><style>.cls-1{fill:#666;}</style></defs><g id="Layer_2" data-name="Layer 2"><g id="Layer_1-2" data-name="Layer 1"><path class="cls-1" d="M3.75,11.74A6.22,6.22,0,0,1,.48,8.47,5.86,5.86,0,0,1,0,6.11,5.82,5.82,0,0,1,.48,3.75,6.22,6.22,0,0,1,1.8,1.8,6.3,6.3,0,0,1,3.74.48,5.91,5.91,0,0,1,6.11,0,5.89,5.89,0,0,1,8.47.48a6.22,6.22,0,0,1,3.27,3.27,5.82,5.82,0,0,1,.48,2.36,5.86,5.86,0,0,1-.48,2.36,6.22,6.22,0,0,1-3.27,3.27,5.86,5.86,0,0,1-2.36.48A5.89,5.89,0,0,1,3.75,11.74ZM7,8.72a.73.73,0,0,0,.18-.54V4a.65.65,0,0,0-.2-.52.73.73,0,0,0-.54-.19A1.4,1.4,0,0,0,6,3.38a1.42,1.42,0,0,0-.42.22l-1,.69a.6.6,0,0,0-.21.21.53.53,0,0,0-.06.26.48.48,0,0,0,.12.33.5.5,0,0,0,.49.12.56.56,0,0,0,.19-.11l.7-.45h0V8.18A.73.73,0,0,0,6,8.72a.69.69,0,0,0,.48.17A.69.69,0,0,0,7,8.72Z"/></g></g></svg>