<svg xmlns="http://www.w3.org/2000/svg" viewBox="0 0 12.22 12.22"><defs><style>.cls-1{fill:#666;}</style></defs><g id="Layer_2" data-name="Layer 2"><g id="Layer_1-2" data-name="Layer 1"><path class="cls-1" d="M3.75,11.74A6.22,6.22,0,0,1,.48,8.47,5.86,5.86,0,0,1,0,6.11,5.82,5.82,0,0,1,.48,3.75,6.22,6.22,0,0,1,1.8,1.8,6.3,6.3,0,0,1,3.74.48,5.91,5.91,0,0,1,6.11,0,5.89,5.89,0,0,1,8.47.48a6.22,6.22,0,0,1,3.27,3.27,5.82,5.82,0,0,1,.48,2.36,5.86,5.86,0,0,1-.48,2.36,6.22,6.22,0,0,1-3.27,3.27,5.86,5.86,0,0,1-2.36.48A5.89,5.89,0,0,1,3.75,11.74ZM7.8,8.84a.61.61,0,0,0,.42-.14.56.56,0,0,0,0-.78.6.6,0,0,0-.42-.13H6v0L7.15,6.53a4.69,4.69,0,0,0,.72-.84,1.55,1.55,0,0,0,.25-.87,1.4,1.4,0,0,0-.54-1.15,2.28,2.28,0,0,0-1.45-.44,2.23,2.23,0,0,0-1.23.34,1.53,1.53,0,0,0-.71.85,1.24,1.24,0,0,0,0,.16.61.61,0,0,0,0,.14.47.47,0,0,0,.15.37.58.58,0,0,0,.4.13A.48.48,0,0,0,5,5.12a1.15,1.15,0,0,0,.21-.23,1.5,1.5,0,0,1,.33-.43.78.78,0,0,1,.56-.2.84.84,0,0,1,.56.18.61.61,0,0,1,.21.49.85.85,0,0,1-.2.53A5.71,5.71,0,0,1,6.2,6L4.41,7.8a.86.86,0,0,0-.2.26.86.86,0,0,0,0,.27.47.47,0,0,0,.16.37.6.6,0,0,0,.41.14Z"/></g></g></svg>