<svg xmlns="http://www.w3.org/2000/svg" viewBox="0 0 12.22 12.22"><defs><style>.cls-1{fill:#ccc;}</style></defs><g id="Layer_2" data-name="Layer 2"><g id="Layer_1-2" data-name="Layer 1"><path class="cls-1" d="M3.75,11.74A6.22,6.22,0,0,1,.48,8.47,5.86,5.86,0,0,1,0,6.11,5.82,5.82,0,0,1,.48,3.75,6.22,6.22,0,0,1,1.8,1.8,6.3,6.3,0,0,1,3.74.48,5.91,5.91,0,0,1,6.11,0,5.89,5.89,0,0,1,8.47.48a6.22,6.22,0,0,1,3.27,3.27,5.82,5.82,0,0,1,.48,2.36,5.86,5.86,0,0,1-.48,2.36,6.22,6.22,0,0,1-3.27,3.27,5.86,5.86,0,0,1-2.36.48A5.89,5.89,0,0,1,3.75,11.74ZM8,10.51a4.81,4.81,0,0,0,1.52-1,4.74,4.74,0,0,0,1-1.51,4.64,4.64,0,0,0,.37-1.86,4.64,4.64,0,0,0-.37-1.86,4.81,4.81,0,0,0-1-1.52A4.58,4.58,0,0,0,8,1.71a4.64,4.64,0,0,0-1.86-.37A4.75,4.75,0,0,0,2.73,2.73a5,5,0,0,0-1,1.52,4.82,4.82,0,0,0-.36,1.86A4.82,4.82,0,0,0,1.71,8a4.77,4.77,0,0,0,1,1.51,4.71,4.71,0,0,0,3.37,1.4A4.82,4.82,0,0,0,8,10.51Zm-3.14-2a1.32,1.32,0,0,1-.69-.79,1.09,1.09,0,0,1,0-.26.46.46,0,0,1,.15-.36A.53.53,0,0,1,4.63,7a.54.54,0,0,1,.51.31,1,1,0,0,0,.35.42,1.09,1.09,0,0,0,.63.17,1.05,1.05,0,0,0,.66-.19A.59.59,0,0,0,7,7.22a.61.61,0,0,0-.25-.52,1,1,0,0,0-.66-.19H5.83a.52.52,0,0,1-.37-.13.51.51,0,0,1,0-.68.57.57,0,0,1,.37-.12h.26a.85.85,0,0,0,.58-.2.62.62,0,0,0,.21-.49.53.53,0,0,0-.2-.44.87.87,0,0,0-.56-.17,1,1,0,0,0-.57.16.89.89,0,0,0-.33.43.56.56,0,0,1-.88.18.45.45,0,0,1-.15-.35.61.61,0,0,1,0-.14.51.51,0,0,0,0-.13,1.29,1.29,0,0,1,.65-.79,2.55,2.55,0,0,1,1.26-.29,2.29,2.29,0,0,1,1.39.39,1.23,1.23,0,0,1,.54,1,1.16,1.16,0,0,1-.3.78,1.14,1.14,0,0,1-.72.4V6A1.27,1.27,0,0,1,8.22,7.28a1.37,1.37,0,0,1-.57,1.14,2.51,2.51,0,0,1-1.56.44A2.45,2.45,0,0,1,4.83,8.55Z"/></g></g></svg>