<svg xmlns="http://www.w3.org/2000/svg" viewBox="0 0 12.22 12.22"><defs><style>.cls-1{fill:#666;}</style></defs><g id="Layer_2" data-name="Layer 2"><g id="Layer_1-2" data-name="Layer 1"><path class="cls-1" d="M3.75,11.74A6.22,6.22,0,0,1,.48,8.47,5.86,5.86,0,0,1,0,6.11,5.82,5.82,0,0,1,.48,3.75,6.22,6.22,0,0,1,1.8,1.8,6.3,6.3,0,0,1,3.74.48,5.91,5.91,0,0,1,6.11,0,5.89,5.89,0,0,1,8.47.48a6.22,6.22,0,0,1,3.27,3.27,5.82,5.82,0,0,1,.48,2.36,5.86,5.86,0,0,1-.48,2.36,6.22,6.22,0,0,1-3.27,3.27,5.86,5.86,0,0,1-2.36.48A5.89,5.89,0,0,1,3.75,11.74Zm4-3.21a1.45,1.45,0,0,0,.6-1.2A1.26,1.26,0,0,0,8,6.42,1.29,1.29,0,0,0,7.09,6V5.94a1.2,1.2,0,0,0,.75-.43,1.15,1.15,0,0,0,.31-.8,1.27,1.27,0,0,0-.56-1.07,2.41,2.41,0,0,0-1.46-.41,2.67,2.67,0,0,0-1.31.3,1.33,1.33,0,0,0-.68.82l0,.14s0,.09,0,.14A.46.46,0,0,0,4.26,5a.59.59,0,0,0,.4.14.56.56,0,0,0,.53-.33,1,1,0,0,1,.34-.45,1,1,0,0,1,.59-.16.9.9,0,0,1,.59.17.55.55,0,0,1,.21.46.65.65,0,0,1-.23.51.9.9,0,0,1-.59.2H5.82a.56.56,0,0,0-.39.13A.49.49,0,0,0,5.29,6a.48.48,0,0,0,.15.36.53.53,0,0,0,.38.13h.3a1.11,1.11,0,0,1,.69.2.63.63,0,0,1,.26.54.62.62,0,0,1-.26.51,1.09,1.09,0,0,1-.69.2,1.14,1.14,0,0,1-.65-.17,1,1,0,0,1-.37-.44A.55.55,0,0,0,4.58,7a.58.58,0,0,0-.42.15A.48.48,0,0,0,4,7.56a1,1,0,0,0,0,.28,1.41,1.41,0,0,0,.72.83A2.67,2.67,0,0,0,6.1,9,2.65,2.65,0,0,0,7.73,8.53Z"/></g></g></svg>