<svg xmlns="http://www.w3.org/2000/svg" viewBox="0 0 12.22 12.22"><defs><style>.cls-1{fill:#666;}</style></defs><g id="Layer_2" data-name="Layer 2"><g id="Layer_1-2" data-name="Layer 1"><path class="cls-1" d="M3.75,11.74A6.22,6.22,0,0,1,.48,8.47,5.86,5.86,0,0,1,0,6.11,5.82,5.82,0,0,1,.48,3.75,6.22,6.22,0,0,1,1.8,1.8,6.3,6.3,0,0,1,3.74.48,5.91,5.91,0,0,1,6.11,0,5.89,5.89,0,0,1,8.47.48a6.22,6.22,0,0,1,3.27,3.27,5.82,5.82,0,0,1,.48,2.36,5.86,5.86,0,0,1-.48,2.36,6.22,6.22,0,0,1-3.27,3.27,5.86,5.86,0,0,1-2.36.48A5.89,5.89,0,0,1,3.75,11.74Zm3.58-3a.62.62,0,0,0,.16-.47V7.83h.33a.57.57,0,0,0,.4-.13.5.5,0,0,0,.15-.37A.54.54,0,0,0,8.23,7a.57.57,0,0,0-.4-.14H7.49V4.06a.74.74,0,0,0-.27-.6,1.06,1.06,0,0,0-.69-.23,1.34,1.34,0,0,0-.7.16,1.43,1.43,0,0,0-.5.53l-.42.65q-.23.33-.42.66c-.14.22-.28.43-.4.63l-.35.57a2.4,2.4,0,0,0-.14.36,1.65,1.65,0,0,0,0,.31.67.67,0,0,0,.22.53.79.79,0,0,0,.58.2h2v.44a.64.64,0,0,0,.15.46.54.54,0,0,0,.42.16A.57.57,0,0,0,7.33,8.74ZM4.72,6.81v0L5,6.32l.31-.51.33-.54L6,4.72l.34-.53h0V6.81Z"/></g></g></svg>