<svg xmlns="http://www.w3.org/2000/svg" viewBox="0 0 12.22 12.22"><defs><style>.cls-1{fill:#ccc;}</style></defs><g id="Layer_2" data-name="Layer 2"><g id="Layer_1-2" data-name="Layer 1"><path class="cls-1" d="M3.75,11.74A6.22,6.22,0,0,1,.48,8.47,5.86,5.86,0,0,1,0,6.11,5.82,5.82,0,0,1,.48,3.75,6.22,6.22,0,0,1,1.8,1.8,6.3,6.3,0,0,1,3.74.48,5.91,5.91,0,0,1,6.11,0,5.89,5.89,0,0,1,8.47.48a6.22,6.22,0,0,1,3.27,3.27,5.82,5.82,0,0,1,.48,2.36,5.86,5.86,0,0,1-.48,2.36,6.22,6.22,0,0,1-3.27,3.27,5.86,5.86,0,0,1-2.36.48A5.89,5.89,0,0,1,3.75,11.74ZM8,10.51a4.81,4.81,0,0,0,1.52-1,4.74,4.74,0,0,0,1-1.51,4.64,4.64,0,0,0,.37-1.86,4.64,4.64,0,0,0-.37-1.86,4.81,4.81,0,0,0-1-1.52A4.58,4.58,0,0,0,8,1.71a4.64,4.64,0,0,0-1.86-.37A4.75,4.75,0,0,0,2.73,2.73a5,5,0,0,0-1,1.52,4.82,4.82,0,0,0-.36,1.86A4.82,4.82,0,0,0,1.71,8a4.77,4.77,0,0,0,1,1.51,4.71,4.71,0,0,0,3.37,1.4A4.82,4.82,0,0,0,8,10.51ZM6.48,8.62a.62.62,0,0,1-.15-.44V7.76H4.44a.78.78,0,0,1-.56-.2.64.64,0,0,1-.21-.51,1.55,1.55,0,0,1,0-.29,1.17,1.17,0,0,1,.14-.33l.33-.56.38-.61L5,4.63,5.37,4a1.7,1.7,0,0,1,.48-.51,1.36,1.36,0,0,1,.67-.15.92.92,0,0,1,.64.22.73.73,0,0,1,.26.57V6.79h.33a.49.49,0,0,1,.37.13.45.45,0,0,1,.14.35.47.47,0,0,1-.14.35.51.51,0,0,1-.37.14H7.42v.42a.6.6,0,0,1-.15.44.54.54,0,0,1-.4.15A.53.53,0,0,1,6.48,8.62ZM6.33,4.27h0L6,4.77l-.33.53-.32.52-.3.5-.25.43v0H6.33Z"/></g></g></svg>