<svg xmlns="http://www.w3.org/2000/svg" viewBox="0 0 12.22 12.22"><defs><style>.cls-1{fill:#666;}</style></defs><g id="Layer_2" data-name="Layer 2"><g id="Layer_1-2" data-name="Layer 1"><path class="cls-1" d="M3.75,11.74A6.22,6.22,0,0,1,.48,8.47,5.86,5.86,0,0,1,0,6.11,5.82,5.82,0,0,1,.48,3.75,6.22,6.22,0,0,1,1.8,1.8,6.3,6.3,0,0,1,3.74.48,5.91,5.91,0,0,1,6.11,0,5.89,5.89,0,0,1,8.47.48a6.22,6.22,0,0,1,3.27,3.27,5.82,5.82,0,0,1,.48,2.36,5.86,5.86,0,0,1-.48,2.36,6.22,6.22,0,0,1-3.27,3.27,5.86,5.86,0,0,1-2.36.48A5.89,5.89,0,0,1,3.75,11.74Zm3.93-3.3A1.86,1.86,0,0,0,8.29,7a1.75,1.75,0,0,0-.52-1.3,1.86,1.86,0,0,0-1.35-.5,1.72,1.72,0,0,0-.72.15,1.06,1.06,0,0,0-.5.38H5.14l.12-1.39H7.54a.51.51,0,0,0,.37-.13.49.49,0,0,0,.14-.36.44.44,0,0,0-.13-.34.52.52,0,0,0-.38-.13H5a.76.76,0,0,0-.54.19.66.66,0,0,0-.22.49L4.1,5.88a.64.64,0,0,0,.15.52.67.67,0,0,0,.53.19.82.82,0,0,0,.33,0,1.11,1.11,0,0,0,.3-.16,2.36,2.36,0,0,1,.36-.21,1,1,0,0,1,.36-.06.85.85,0,0,1,.65.25,1,1,0,0,1,0,1.35,1,1,0,0,1-.7.27,1.15,1.15,0,0,1-.57-.14,1,1,0,0,1-.39-.38.7.7,0,0,0-.22-.2.63.63,0,0,0-.32-.07.57.57,0,0,0-.4.14A.49.49,0,0,0,4,7.69.71.71,0,0,0,4.08,8a1.34,1.34,0,0,0,.7.71A2.84,2.84,0,0,0,6.08,9,2.33,2.33,0,0,0,7.68,8.44Z"/></g></g></svg>