<svg xmlns="http://www.w3.org/2000/svg" viewBox="0 0 12.22 12.22"><defs><style>.cls-1{fill:#ccc;}</style></defs><g id="Layer_2" data-name="Layer 2"><g id="Layer_1-2" data-name="Layer 1"><path class="cls-1" d="M3.75,11.74A6.22,6.22,0,0,1,.48,8.47,5.86,5.86,0,0,1,0,6.11,5.82,5.82,0,0,1,.48,3.75,6.22,6.22,0,0,1,1.8,1.8,6.3,6.3,0,0,1,3.74.48,5.91,5.91,0,0,1,6.11,0,5.89,5.89,0,0,1,8.47.48a6.22,6.22,0,0,1,3.27,3.27,5.82,5.82,0,0,1,.48,2.36,5.86,5.86,0,0,1-.48,2.36,6.22,6.22,0,0,1-3.27,3.27,5.86,5.86,0,0,1-2.36.48A5.89,5.89,0,0,1,3.75,11.74ZM8,10.51a4.81,4.81,0,0,0,1.52-1,4.74,4.74,0,0,0,1-1.51,4.64,4.64,0,0,0,.37-1.86,4.64,4.64,0,0,0-.37-1.86,4.81,4.81,0,0,0-1-1.52A4.58,4.58,0,0,0,8,1.71a4.64,4.64,0,0,0-1.86-.37A4.75,4.75,0,0,0,2.73,2.73a5,5,0,0,0-1,1.52,4.82,4.82,0,0,0-.36,1.86A4.82,4.82,0,0,0,1.71,8a4.77,4.77,0,0,0,1,1.51,4.71,4.71,0,0,0,3.37,1.4A4.82,4.82,0,0,0,8,10.51ZM4.83,8.61a1.34,1.34,0,0,1-.67-.68.8.8,0,0,1-.06-.3.44.44,0,0,1,.13-.34.54.54,0,0,1,.38-.14.66.66,0,0,1,.3.07.76.76,0,0,1,.21.19,1,1,0,0,0,.37.37,1.13,1.13,0,0,0,.56.13.94.94,0,0,0,.67-.26A.89.89,0,0,0,7,7a.85.85,0,0,0-.23-.64.83.83,0,0,0-.62-.24,1,1,0,0,0-.36.06,1.57,1.57,0,0,0-.34.2,1.15,1.15,0,0,1-.29.15,1,1,0,0,1-.32.05.67.67,0,0,1-.5-.18.61.61,0,0,1-.14-.5l.13-1.75a.66.66,0,0,1,.22-.47A.72.72,0,0,1,5,3.49H7.47a.48.48,0,0,1,.35.12A.42.42,0,0,1,8,3.94a.42.42,0,0,1-.13.33.46.46,0,0,1-.35.13H5.28L5.17,5.74h.06a.94.94,0,0,1,.47-.36,1.66,1.66,0,0,1,.7-.15,1.75,1.75,0,0,1,1.28.48A1.66,1.66,0,0,1,8.17,7,1.76,1.76,0,0,1,7.6,8.34a2.18,2.18,0,0,1-1.52.52A2.76,2.76,0,0,1,4.83,8.61Z"/></g></g></svg>