<svg xmlns="http://www.w3.org/2000/svg" viewBox="0 0 12.22 12.22"><defs><style>.cls-1{fill:#ccc;}</style></defs><g id="Layer_2" data-name="Layer 2"><g id="Layer_1-2" data-name="Layer 1"><path class="cls-1" d="M3.75,11.74A6.22,6.22,0,0,1,.48,8.47,5.86,5.86,0,0,1,0,6.11,5.82,5.82,0,0,1,.48,3.75,6.22,6.22,0,0,1,1.8,1.8,6.3,6.3,0,0,1,3.74.48,5.91,5.91,0,0,1,6.11,0,5.89,5.89,0,0,1,8.47.48a6.22,6.22,0,0,1,3.27,3.27,5.82,5.82,0,0,1,.48,2.36,5.86,5.86,0,0,1-.48,2.36,6.22,6.22,0,0,1-3.27,3.27,5.86,5.86,0,0,1-2.36.48A5.89,5.89,0,0,1,3.75,11.74ZM8,10.51a4.81,4.81,0,0,0,1.52-1,4.74,4.74,0,0,0,1-1.51,4.64,4.64,0,0,0,.37-1.86,4.64,4.64,0,0,0-.37-1.86,4.81,4.81,0,0,0-1-1.52A4.58,4.58,0,0,0,8,1.71a4.64,4.64,0,0,0-1.86-.37A4.75,4.75,0,0,0,2.73,2.73a5,5,0,0,0-1,1.52,4.82,4.82,0,0,0-.36,1.86A4.82,4.82,0,0,0,1.71,8a4.77,4.77,0,0,0,1,1.51,4.71,4.71,0,0,0,3.37,1.4A4.82,4.82,0,0,0,8,10.51ZM5.11,8.64a1.79,1.79,0,0,1-.77-.7,2.66,2.66,0,0,1-.29-.74,4.49,4.49,0,0,1-.11-1,3.09,3.09,0,0,1,.63-2.11A2.18,2.18,0,0,1,6.3,3.35a2.57,2.57,0,0,1,.7.1,1.73,1.73,0,0,1,.56.28,1,1,0,0,1,.34.38A.37.37,0,0,1,8,4.27a.47.47,0,0,1,0,.17.38.38,0,0,1-.13.3.45.45,0,0,1-.33.12.5.5,0,0,1-.29-.07A1.75,1.75,0,0,1,7,4.61a1.08,1.08,0,0,0-.28-.23.88.88,0,0,0-.43-.1,1,1,0,0,0-.83.45,2,2,0,0,0-.32,1.19V6a.13.13,0,0,0,0,.06h0a1.45,1.45,0,0,1,.5-.52,1.59,1.59,0,0,1,.86-.22,1.91,1.91,0,0,1,.86.2A1.54,1.54,0,0,1,8,6.07a1.63,1.63,0,0,1,.23.9,1.74,1.74,0,0,1-.58,1.39,2.24,2.24,0,0,1-1.51.5A2.36,2.36,0,0,1,5.11,8.64Zm1.67-1A.92.92,0,0,0,7,7a.9.9,0,0,0-.26-.66,1,1,0,0,0-1.34,0A.89.89,0,0,0,5.17,7a.93.93,0,0,0,.26.68A.9.9,0,0,0,6.09,8,.94.94,0,0,0,6.78,7.69Z"/></g></g></svg>