<svg xmlns="http://www.w3.org/2000/svg" viewBox="0 0 12.22 12.22"><defs><style>.cls-1{fill:#666;}</style></defs><g id="Layer_2" data-name="Layer 2"><g id="Layer_1-2" data-name="Layer 1"><path class="cls-1" d="M3.75,11.74A6.22,6.22,0,0,1,.48,8.47,5.86,5.86,0,0,1,0,6.11,5.82,5.82,0,0,1,.48,3.75,6.22,6.22,0,0,1,1.8,1.8,6.3,6.3,0,0,1,3.74.48,5.91,5.91,0,0,1,6.11,0,5.89,5.89,0,0,1,8.47.48a6.22,6.22,0,0,1,3.27,3.27,5.82,5.82,0,0,1,.48,2.36,5.86,5.86,0,0,1-.48,2.36,6.22,6.22,0,0,1-3.27,3.27,5.86,5.86,0,0,1-2.36.48A5.89,5.89,0,0,1,3.75,11.74Zm4-3.28A1.8,1.8,0,0,0,8.35,7a1.75,1.75,0,0,0-.24-.94,1.7,1.7,0,0,0-.65-.6,1.93,1.93,0,0,0-.9-.21,1.67,1.67,0,0,0-.9.23A1.36,1.36,0,0,0,5.14,6h0V5.91a2.16,2.16,0,0,1,.32-1.23,1,1,0,0,1,.87-.47,1,1,0,0,1,.45.1,2.37,2.37,0,0,1,.3.23,2,2,0,0,0,.26.2.57.57,0,0,0,.31.07A.48.48,0,0,0,8,4.68a.42.42,0,0,0,.14-.32,1.1,1.1,0,0,0,0-.18S8,4.07,8,4a1.31,1.31,0,0,0-.36-.39,1.91,1.91,0,0,0-.59-.29,2.45,2.45,0,0,0-.74-.1A2.31,2.31,0,0,0,4.5,4a3.24,3.24,0,0,0-.66,2.21A4.73,4.73,0,0,0,4,7.24,2.54,2.54,0,0,0,4.26,8a1.87,1.87,0,0,0,.8.73A2.49,2.49,0,0,0,6.16,9,2.33,2.33,0,0,0,7.74,8.46ZM5.41,7.75A1,1,0,0,1,5.14,7a.93.93,0,0,1,.27-.68,1,1,0,0,1,.7-.26.93.93,0,0,1,.69.27.9.9,0,0,1,.27.68,1,1,0,0,1-.27.71A.93.93,0,0,1,6.1,8,.94.94,0,0,1,5.41,7.75Z"/></g></g></svg>