<svg xmlns="http://www.w3.org/2000/svg" viewBox="0 0 12.22 12.22"><defs><style>.cls-1{fill:#666;}</style></defs><g id="Layer_2" data-name="Layer 2"><g id="Layer_1-2" data-name="Layer 1"><path class="cls-1" d="M3.75,11.74A6.22,6.22,0,0,1,.48,8.47,5.86,5.86,0,0,1,0,6.11,5.82,5.82,0,0,1,.48,3.75,6.22,6.22,0,0,1,1.8,1.8,6.3,6.3,0,0,1,3.74.48,5.91,5.91,0,0,1,6.11,0,5.89,5.89,0,0,1,8.47.48a6.22,6.22,0,0,1,3.27,3.27,5.82,5.82,0,0,1,.48,2.36,5.86,5.86,0,0,1-.48,2.36,6.22,6.22,0,0,1-3.27,3.27,5.86,5.86,0,0,1-2.36.48A5.89,5.89,0,0,1,3.75,11.74Zm2-2.86A1.13,1.13,0,0,0,6,8.54l2.1-3.78c.07-.14.12-.26.16-.35a1,1,0,0,0,0-.3.68.68,0,0,0-.23-.54.9.9,0,0,0-.61-.2H4.58a.57.57,0,0,0-.4.14A.5.5,0,0,0,4,3.88a.5.5,0,0,0,.14.37.57.57,0,0,0,.4.14H6.91v.05L4.87,8a.75.75,0,0,0-.12.4.54.54,0,0,0,.18.42A.71.71,0,0,0,5.39,9,.69.69,0,0,0,5.75,8.88Z"/></g></g></svg>