<svg xmlns="http://www.w3.org/2000/svg" viewBox="0 0 12.22 12.22"><defs><style>.cls-1{fill:#666;}</style></defs><g id="Layer_2" data-name="Layer 2"><g id="Layer_1-2" data-name="Layer 1"><path class="cls-1" d="M3.75,11.74A6.22,6.22,0,0,1,.48,8.47,5.86,5.86,0,0,1,0,6.11,5.82,5.82,0,0,1,.48,3.75,6.22,6.22,0,0,1,1.8,1.8,6.3,6.3,0,0,1,3.74.48,5.91,5.91,0,0,1,6.11,0,5.89,5.89,0,0,1,8.47.48a6.22,6.22,0,0,1,3.27,3.27,5.82,5.82,0,0,1,.48,2.36,5.86,5.86,0,0,1-.48,2.36,6.22,6.22,0,0,1-3.27,3.27,5.86,5.86,0,0,1-2.36.48A5.89,5.89,0,0,1,3.75,11.74Zm4-3.21a1.41,1.41,0,0,0,.64-1.2,1.28,1.28,0,0,0-.35-.89A1.5,1.5,0,0,0,7.18,6V5.92a1.49,1.49,0,0,0,.75-.45,1.19,1.19,0,0,0,.26-.76,1.26,1.26,0,0,0-.57-1.07,2.52,2.52,0,0,0-1.51-.41,2.48,2.48,0,0,0-1.51.41A1.26,1.26,0,0,0,4,4.71a1.13,1.13,0,0,0,.26.76A1.42,1.42,0,0,0,5,5.92V6a1.52,1.52,0,0,0-.9.47,1.25,1.25,0,0,0-.34.89,1.38,1.38,0,0,0,.63,1.19A2.83,2.83,0,0,0,6.1,9,2.89,2.89,0,0,0,7.79,8.53Zm-2.4-.67a.78.78,0,0,1-.29-.61.76.76,0,0,1,.29-.61,1,1,0,0,1,.73-.25,1,1,0,0,1,.72.25.75.75,0,0,1,.28.61.78.78,0,0,1-.29.61,1,1,0,0,1-.71.25A1,1,0,0,1,5.39,7.86ZM5.5,5.37a.71.71,0,0,1-.23-.54.68.68,0,0,1,.23-.52,1,1,0,0,1,.61-.2.92.92,0,0,1,.6.2A.66.66,0,0,1,7,4.83a.68.68,0,0,1-.24.54.88.88,0,0,1-.6.21A.9.9,0,0,1,5.5,5.37Z"/></g></g></svg>