<svg xmlns="http://www.w3.org/2000/svg" viewBox="0 0 12.22 12.22"><defs><style>.cls-1{fill:#ccc;}</style></defs><g id="Layer_2" data-name="Layer 2"><g id="Layer_1-2" data-name="Layer 1"><path class="cls-1" d="M3.75,11.74A6.22,6.22,0,0,1,.48,8.47,5.86,5.86,0,0,1,0,6.11,5.82,5.82,0,0,1,.48,3.75,6.22,6.22,0,0,1,1.8,1.8,6.3,6.3,0,0,1,3.74.48,5.91,5.91,0,0,1,6.11,0,5.89,5.89,0,0,1,8.47.48a6.22,6.22,0,0,1,3.27,3.27,5.82,5.82,0,0,1,.48,2.36,5.86,5.86,0,0,1-.48,2.36,6.22,6.22,0,0,1-3.27,3.27,5.86,5.86,0,0,1-2.36.48A5.89,5.89,0,0,1,3.75,11.74ZM8,10.51a4.81,4.81,0,0,0,1.52-1,4.74,4.74,0,0,0,1-1.51,4.64,4.64,0,0,0,.37-1.86,4.64,4.64,0,0,0-.37-1.86,4.81,4.81,0,0,0-1-1.52A4.58,4.58,0,0,0,8,1.71a4.64,4.64,0,0,0-1.86-.37A4.75,4.75,0,0,0,2.73,2.73a5,5,0,0,0-1,1.52,4.82,4.82,0,0,0-.36,1.86A4.82,4.82,0,0,0,1.71,8a4.77,4.77,0,0,0,1,1.51,4.71,4.71,0,0,0,3.37,1.4A4.82,4.82,0,0,0,8,10.51ZM4.5,8.43a1.35,1.35,0,0,1-.6-1.15,1.2,1.2,0,0,1,.32-.85A1.5,1.5,0,0,1,5.08,6V5.93a1.38,1.38,0,0,1-.71-.44,1.07,1.07,0,0,1-.25-.72,1.19,1.19,0,0,1,.55-1,2.41,2.41,0,0,1,1.44-.39,2.4,2.4,0,0,1,1.43.39,1.19,1.19,0,0,1,.55,1,1.12,1.12,0,0,1-.25.73,1.44,1.44,0,0,1-.72.43V6A1.41,1.41,0,0,1,8,6.43a1.21,1.21,0,0,1,.33.85,1.36,1.36,0,0,1-.6,1.15,2.79,2.79,0,0,1-1.61.43A2.66,2.66,0,0,1,4.5,8.43Zm2.3-.64a.72.72,0,0,0,.28-.59.75.75,0,0,0-.27-.59,1,1,0,0,0-.7-.23,1,1,0,0,0-.7.23.77.77,0,0,0-.28.59.72.72,0,0,0,.28.59,1,1,0,0,0,.7.24A1,1,0,0,0,6.8,7.79ZM6.69,5.4a.7.7,0,0,0,0-1,.89.89,0,0,0-.58-.2.85.85,0,0,0-.58.2.68.68,0,0,0,0,1,.81.81,0,0,0,.58.21A.84.84,0,0,0,6.69,5.4Z"/></g></g></svg>