<svg xmlns="http://www.w3.org/2000/svg" viewBox="0 0 12.22 12.22"><defs><style>.cls-1{fill:#666;}</style></defs><g id="Layer_2" data-name="Layer 2"><g id="Layer_1-2" data-name="Layer 1"><path class="cls-1" d="M3.75,11.74A6.22,6.22,0,0,1,.48,8.47,5.86,5.86,0,0,1,0,6.11,5.82,5.82,0,0,1,.48,3.75,6.22,6.22,0,0,1,1.8,1.8,6.3,6.3,0,0,1,3.74.48,5.91,5.91,0,0,1,6.11,0,5.89,5.89,0,0,1,8.47.48a6.22,6.22,0,0,1,3.27,3.27,5.82,5.82,0,0,1,.48,2.36,5.86,5.86,0,0,1-.48,2.36,6.22,6.22,0,0,1-3.27,3.27,5.86,5.86,0,0,1-2.36.48A5.89,5.89,0,0,1,3.75,11.74Zm4-3.53A3.52,3.52,0,0,0,8.38,6a3.05,3.05,0,0,0-.6-2,2.1,2.1,0,0,0-1.7-.71,2.52,2.52,0,0,0-1.14.24,1.84,1.84,0,0,0-.77.69,1.93,1.93,0,0,0-.27,1,1.79,1.79,0,0,0,.24.95,1.68,1.68,0,0,0,.66.61A2,2,0,0,0,5.71,7a1.53,1.53,0,0,0,.89-.24,1.33,1.33,0,0,0,.5-.56h.05A2.32,2.32,0,0,1,6.86,7.5,1,1,0,0,1,6,8a1,1,0,0,1-.46-.1,1.29,1.29,0,0,1-.36-.31A1.16,1.16,0,0,0,5,7.42a.67.67,0,0,0-.3-.06.53.53,0,0,0-.37.14.45.45,0,0,0-.15.35s0,.09,0,.13a.61.61,0,0,0,0,.12,1,1,0,0,0,.31.42,1.56,1.56,0,0,0,.6.33A2.65,2.65,0,0,0,6,9,2.11,2.11,0,0,0,7.76,8.21ZM5.44,5.84a.93.93,0,0,1-.27-.69,1,1,0,0,1,.26-.7,1,1,0,0,1,.7-.27.94.94,0,0,1,.7.28,1,1,0,0,1,.27.7.93.93,0,0,1-.27.68.94.94,0,0,1-.7.27A.93.93,0,0,1,5.44,5.84Z"/></g></g></svg>