<svg xmlns="http://www.w3.org/2000/svg" viewBox="0 0 12.22 12.22"><defs><style>.cls-1{fill:#ccc;}</style></defs><g id="Layer_2" data-name="Layer 2"><g id="Layer_1-2" data-name="Layer 1"><path class="cls-1" d="M3.75,11.74A6.22,6.22,0,0,1,.48,8.47,5.86,5.86,0,0,1,0,6.11,5.82,5.82,0,0,1,.48,3.75,6.22,6.22,0,0,1,1.8,1.8,6.3,6.3,0,0,1,3.74.48,5.91,5.91,0,0,1,6.11,0,5.89,5.89,0,0,1,8.47.48a6.22,6.22,0,0,1,3.27,3.27,5.82,5.82,0,0,1,.48,2.36,5.86,5.86,0,0,1-.48,2.36,6.22,6.22,0,0,1-3.27,3.27,5.86,5.86,0,0,1-2.36.48A5.89,5.89,0,0,1,3.75,11.74ZM8,10.51a4.81,4.81,0,0,0,1.52-1,4.74,4.74,0,0,0,1-1.51,4.64,4.64,0,0,0,.37-1.86,4.64,4.64,0,0,0-.37-1.86,4.81,4.81,0,0,0-1-1.52A4.58,4.58,0,0,0,8,1.71a4.64,4.64,0,0,0-1.86-.37A4.75,4.75,0,0,0,2.73,2.73a5,5,0,0,0-1,1.52,4.82,4.82,0,0,0-.36,1.86A4.82,4.82,0,0,0,1.71,8a4.77,4.77,0,0,0,1,1.51,4.71,4.71,0,0,0,3.37,1.4A4.82,4.82,0,0,0,8,10.51ZM5.15,8.73a1.7,1.7,0,0,1-.57-.31A1.11,1.11,0,0,1,4.27,8s0-.08,0-.12a.49.49,0,0,1,0-.12.46.46,0,0,1,.14-.34.49.49,0,0,1,.35-.13A.6.6,0,0,1,5,7.37a.9.9,0,0,1,.19.15,1.37,1.37,0,0,0,.35.3.93.93,0,0,0,.45.1,1,1,0,0,0,.83-.48A2.12,2.12,0,0,0,7.1,6.16h0a1.24,1.24,0,0,1-.47.53,1.48,1.48,0,0,1-.86.22,1.85,1.85,0,0,1-.87-.2,1.57,1.57,0,0,1-.63-.57A1.76,1.76,0,0,1,4,5.23a1.86,1.86,0,0,1,.26-1A1.67,1.67,0,0,1,5,3.59a2.41,2.41,0,0,1,1.1-.24A2,2,0,0,1,7.69,4,2.88,2.88,0,0,1,8.27,6a3.42,3.42,0,0,1-.59,2.15A2,2,0,0,1,6,8.86,2.37,2.37,0,0,1,5.15,8.73ZM6.79,5.85a.85.85,0,0,0,.26-.65.9.9,0,0,0-.26-.68.88.88,0,0,0-.66-.27.89.89,0,0,0-.94.94.9.9,0,0,0,.26.66.94.94,0,0,0,.67.26A.87.87,0,0,0,6.79,5.85Z"/></g></g></svg>