<svg xmlns="http://www.w3.org/2000/svg" viewBox="0 0 83.01 82.97"><defs><style>.cls-1{fill:#666;}</style></defs><g id="Layer_2" data-name="Layer 2"><g id="Layer_1-2" data-name="Layer 1"><path class="cls-1" d="M25.42,79.73A42.15,42.15,0,0,1,3.24,57.55,40.13,40.13,0,0,1,0,41.48,40.12,40.12,0,0,1,3.24,25.42,42.15,42.15,0,0,1,25.42,3.24,40.12,40.12,0,0,1,41.48,0,40.16,40.16,0,0,1,57.55,3.24a42.28,42.28,0,0,1,22.2,22.18A40,40,0,0,1,83,41.48a40,40,0,0,1-3.26,16.07A42.34,42.34,0,0,1,57.57,79.73,40.09,40.09,0,0,1,41.48,83,40.12,40.12,0,0,1,25.42,79.73Zm31-2.94A38.49,38.49,0,0,0,76.83,56.34a37.37,37.37,0,0,0,3-14.86,37.32,37.32,0,0,0-3-14.85A38.67,38.67,0,0,0,56.36,6.14a37.3,37.3,0,0,0-14.88-3,37.33,37.33,0,0,0-14.85,3,38.38,38.38,0,0,0-12.22,8.25A38.85,38.85,0,0,0,6.18,26.63a37.32,37.32,0,0,0-3,14.85,37.37,37.37,0,0,0,3,14.86A38.47,38.47,0,0,0,26.63,76.79a37.5,37.5,0,0,0,14.85,3A37.68,37.68,0,0,0,56.39,76.79Zm-16-14.94A1.52,1.52,0,0,1,40,60.7v-29l.13-6.35-5.25,5.42-7.49,7.54a1.5,1.5,0,0,1-1.1.46,1.39,1.39,0,0,1-1-.4,1.34,1.34,0,0,1-.4-1,1.24,1.24,0,0,1,.46-1L40.43,21.08a1.53,1.53,0,0,1,1.1-.51,1.54,1.54,0,0,1,1.1.51L57.87,36.32a1.39,1.39,0,0,1,.42,1,1.32,1.32,0,0,1-.42,1,1.43,1.43,0,0,1-1,.4,1.5,1.5,0,0,1-1.1-.46l-7.53-7.54-5.3-5.46.17,6.39v29a1.55,1.55,0,0,1-.44,1.15,1.57,1.57,0,0,1-1.12.42A1.56,1.56,0,0,1,40.41,61.85Z"/></g></g></svg>